<?xml version="1.0"?>
<svg xmlns="http://www.w3.org/2000/svg" viewBox="0 0 50 50">
    <path style="text-indent:0;text-align:start;line-height:normal;text-transform:none;block-progression:tb;-inkscape-font-specification:Bitstream Vera Sans" d="M 4 9 C 2.3550302 9 1 10.35503 1 12 L 1 38 C 1 39.64497 2.3550302 41 4 41 L 46 41 C 47.64497 41 49 39.64497 49 38 L 49 12 C 49 10.35503 47.64497 9 46 9 L 4 9 z M 4 11 L 46 11 C 46.56503 11 47 11.43497 47 12 L 47 38 C 47 38.56503 46.56503 39 46 39 L 4 39 C 3.4349698 39 3 38.56503 3 38 L 3 12 C 3 11.43497 3.4349698 11 4 11 z M 16.5 16.28125 L 12.03125 19.46875 L 12.03125 21.90625 L 16.28125 18.84375 L 16.5 18.84375 L 16.5 33.1875 L 18.875 33.1875 L 18.875 16.28125 L 16.5 16.28125 z M 34.8125 16.28125 L 30.34375 19.46875 L 30.34375 21.90625 L 34.59375 18.84375 L 34.8125 18.84375 L 34.8125 33.1875 L 37.1875 33.1875 L 37.1875 16.28125 L 34.8125 16.28125 z M 25.4375 21.15625 C 24.5235 21.15625 23.8125 21.86725 23.8125 22.78125 C 23.8125 23.68325 24.5235 24.40625 25.4375 24.40625 C 26.3635 24.40625 27.0625 23.68325 27.0625 22.78125 C 27.0625 21.86725 26.3635 21.15625 25.4375 21.15625 z M 25.4375 30.09375 C 24.5235 30.09375 23.8125 30.80475 23.8125 31.71875 C 23.8125 32.62075 24.5235 33.34375 25.4375 33.34375 C 26.3635 33.34375 27.0625 32.62075 27.0625 31.71875 C 27.0625 30.80475 26.3635 30.09375 25.4375 30.09375 z" overflow="visible" font-family="Bitstream Vera Sans"/>
</svg>
