<svg xmlns="http://www.w3.org/2000/svg"><path d="M10 7.911c-.296 0-.544-.1-.744-.3-.2-.2-.3-.448-.3-.744v-3.29l-1.15 1.149a1.016 1.016 0 0 1-.743.313c-.287 0-.536-.104-.744-.313a1.017 1.017 0 0 1-.314-.745c0-.287.105-.535.314-.743l2.95-2.95a.922.922 0 0 1 .34-.223C9.73.022 9.86 0 10 0c.14 0 .27.022.392.065a.922.922 0 0 1 .34.222l2.976 2.977c.208.209.309.456.3.743-.009.288-.118.536-.326.745a1.032 1.032 0 0 1-.758.313c-.296 0-.548-.104-.757-.313l-1.123-1.175v3.29c0 .296-.1.544-.3.743-.2.201-.448.301-.744.301ZM10 20c-.14 0-.27-.022-.392-.066a.911.911 0 0 1-.34-.221l-2.976-2.977a.971.971 0 0 1-.3-.744c.009-.287.118-.535.327-.744.208-.209.465-.318.77-.327.305-.008.552.1.744.327l1.123 1.175v-3.29c0-.296.1-.544.3-.744.2-.2.448-.3.744-.3s.544.1.745.3c.2.2.3.448.3.744v3.29l1.148-1.175a.948.948 0 0 1 .731-.313c.296 0 .549.104.758.313.208.209.313.461.313.757s-.105.549-.313.757l-2.95 2.95a.911.911 0 0 1-.34.222A1.146 1.146 0 0 1 10 20Zm5.248-6.319a1.097 1.097 0 0 1-.327-.77.894.894 0 0 1 .327-.744l1.175-1.123h-3.29c-.296 0-.544-.1-.743-.3-.201-.2-.301-.448-.301-.744s.1-.544.3-.745c.2-.2.448-.3.744-.3h3.29l-1.175-1.148a.948.948 0 0 1-.313-.731c0-.296.104-.549.313-.757.209-.21.461-.314.757-.314s.549.105.757.314l2.95 2.95a.922.922 0 0 1 .223.34c.043.121.065.252.065.391 0 .14-.022.27-.065.392a.922.922 0 0 1-.222.34l-2.977 2.976a.97.97 0 0 1-.743.3 1.064 1.064 0 0 1-.745-.326Zm-12.01 0-2.95-2.95a.91.91 0 0 1-.222-.34A1.147 1.147 0 0 1 0 10c0-.14.022-.27.066-.392a.91.91 0 0 1 .221-.34l2.977-2.976a.975.975 0 0 1 .718-.287c.287 0 .535.105.744.314a.99.99 0 0 1 .3.757c-.008.296-.117.548-.326.757L3.577 8.956h3.29c.296 0 .544.1.744.3.2.2.3.448.3.744s-.1.544-.3.744c-.2.2-.448.3-.744.3h-3.29l1.175 1.15a.948.948 0 0 1 .313.73c0 .296-.104.549-.313.758a1.032 1.032 0 0 1-.757.313c-.296 0-.549-.105-.757-.313Z"></path></svg>